<svg xmlns="http://www.w3.org/2000/svg" viewBox="215.2 128.8 163.8 163.8"><g fill="#AA3A50"><path d="M316.8 206.8c6.9-2.9 11.1-8.5 11.1-16.2 0-14.2-10-20.8-27.2-20.8H291V185h7c6.7 0 10.3 2.2 10.3 7.6 0 5.2-3.9 7.5-10.6 7.5H291v15.4h11.2c7.5 0 11.6 2.6 11.6 8.3 0 5.2-3.4 7.9-10.7 7.9h-17.5v-61.9h-.1l-19 15.2v62h39.4c18.2 0 28.2-7.9 28.2-20.9 0-10.9-6.5-17-17.3-19.3z"/><path d="M297.1 128.8c-45.3 0-81.9 36.7-81.9 81.9 0 45.3 36.7 81.9 81.9 81.9 45.3 0 81.9-36.7 81.9-81.9s-36.7-81.9-81.9-81.9zm53.6 118.6v16.8H334c-10.5 7.3-23.2 11.6-37 11.6-35.9 0-64.9-29.1-64.9-64.9 0-35.9 29.1-64.9 64.9-64.9 35.9 0 64.9 29.1 64.9 64.9.1 13.4-4.1 26-11.2 36.5z"/></g></svg>
