<svg version="1.1" xmlns="http://www.w3.org/2000/svg" xmlns:xlink="http://www.w3.org/1999/xlink" x="0" y="0" viewBox="0 0 256 256" xml:space="preserve" enable-background="new 0 0 256 256"><style type="text/css">.st1{fill:#fff}</style><g><g><rect x=".1" y=".1" width="255.9" height="255.9" fill="#c34c4f"/></g></g><g><path class="st1" d="M200.3,192.6c-9.7-5.9-19.3-11.7-29.1-17.6c-3.1,8.2-6.1,16.3-9.2,24.7c-18.3-26.2-36.4-52.2-54.7-78.4 c31.7,4,63.1,7.9,94.8,11.9c-5.9,6.6-11.6,13.1-17.5,19.6c9.7,5.9,19.3,11.7,29.1,17.6C209.2,177.8,204.8,185.2,200.3,192.6z"/><g><path class="st1" d="M132.4,175.2c-7.6,3.6-16.1,5.5-25.1,5.5c-32.8,0-59.5-26.7-59.5-59.5c0-32.8,26.7-59.5,59.5-59.5 c31.8,0,57.9,25.1,59.4,56.6l5.5,0.7c-1.2-34.8-29.8-62.8-64.9-62.8c-35.8,0-65,29.1-65,65c0,35.8,29.1,65,65,65 c10.1,0,19.7-2.3,28.3-6.5L132.4,175.2z"/></g><g><path class="st1" d="M117.4,153.7c-3.2,1-6.6,1.5-10,1.5c-18.7,0-33.9-15.2-33.9-33.9s15.2-33.9,33.9-33.9 c16.6,0,30.4,12,33.3,27.7l5.7,0.7c-2.7-19.2-19.2-34-39-34c-21.7,0-39.4,17.7-39.4,39.4s17.7,39.4,39.4,39.4 c4.7,0,9.2-0.8,13.3-2.3L117.4,153.7z"/></g></g></svg>